<svg viewBox="0 0 181 169" fill="none" xmlns="http://www.w3.org/2000/svg">
<g filter="url(#filter0_d_3_21)">
<path d="M80.1739 131.405L80.1739 81.0264C80.1739 70.9878 72.0361 62.8499 61.9976 62.8499C51.9591 62.8499 43.8213 70.9878 43.8213 81.0264L43.8213 131.405C43.8213 141.444 51.9591 149.582 61.9976 149.582C72.0361 149.582 80.1739 141.444 80.1739 131.405Z" fill="#BB86FC" fill-opacity="0.94" shape-rendering="crispEdges"/>
<path d="M80.1739 131.405L80.1739 81.0264C80.1739 70.9878 72.0361 62.8499 61.9976 62.8499C51.9591 62.8499 43.8213 70.9878 43.8213 81.0264L43.8213 131.405C43.8213 141.444 51.9591 149.582 61.9976 149.582C72.0361 149.582 80.1739 141.444 80.1739 131.405Z" stroke="#BB86FC" shape-rendering="crispEdges"/>
</g>
<path d="M82.2667 66.6558L112.062 9.67014L82.7839 9.3757L52.3039 66.3545C48.0193 69.8389 45.0859 67.6647 42.0508 64.7844C61.0279 94.0947 75.743 76.0033 82.2667 66.6558Z" fill="#BB86FC"/>
<path d="M82.2667 66.6558L112.062 9.67014L82.7839 9.3757L52.3039 66.3545C48.0193 69.8389 45.0859 67.6647 42.0508 64.7844C61.0279 94.0947 75.743 76.0033 82.2667 66.6558Z" fill="url(#paint0_linear_3_21)" fill-opacity="0.2"/>
<path d="M82.2667 66.6558L112.062 9.67014L82.7839 9.3757L52.3039 66.3545C48.0193 69.8389 45.0859 67.6647 42.0508 64.7844C61.0279 94.0947 75.743 76.0033 82.2667 66.6558Z" stroke="#BB86FC"/>
<g filter="url(#filter1_d_3_21)">
<path d="M11.3389 6.99993L44.0433 74.3661L50.5925 79.4232L56.9138 81.6382L62.9046 82.9892L67.5661 81.7453L71.7281 79.6358L74.3629 78.1133L76.5921 74.6934L44.6486 7.33491L11.3389 6.99993Z" fill="#BB86FC"/>
<path d="M11.3389 6.99993L44.0433 74.3661L50.5925 79.4232L56.9138 81.6382L62.9046 82.9892L67.5661 81.7453L71.7281 79.6358L74.3629 78.1133L76.5921 74.6934L44.6486 7.33491L11.3389 6.99993Z" fill="url(#paint1_linear_3_21)"/>
<path d="M11.3389 6.99993L44.0433 74.3661L50.5925 79.4232L56.9138 81.6382L62.9046 82.9892L67.5661 81.7453L71.7281 79.6358L74.3629 78.1133L76.5921 74.6934L44.6486 7.33491L11.3389 6.99993Z" stroke="#BB86FC"/>
</g>
<g filter="url(#filter2_d_3_21)">
<path d="M112.488 153.544L162.27 127.764L165.936 122.745L167.482 117.947L168.388 113.413L167.378 109.924L165.729 106.826L164.546 104.868L161.951 103.247L112.162 128.454L112.488 153.544Z" fill="#BB86FC"/>
<path d="M112.488 153.544L162.27 127.764L165.936 122.745L167.482 117.947L168.388 113.413L167.378 109.924L165.729 106.826L164.546 104.868L161.951 103.247L112.162 128.454L112.488 153.544Z" fill="url(#paint2_linear_3_21)"/>
<path d="M112.488 153.544L162.27 127.764L165.936 122.745L167.482 117.947L168.388 113.413L167.378 109.924L165.729 106.826L164.546 104.868L161.951 103.247L112.162 128.454L112.488 153.544Z" stroke="#BB86FC"/>
</g>
<path d="M161.981 95.0825L111.489 71.599L111.802 95.7739L162.302 119.823C165.438 123.292 163.591 125.755 161.127 128.317C186.428 112.079 170.295 100.285 161.981 95.0825Z" fill="#BB86FC" stroke="#BB86FC"/>
<g filter="url(#filter3_d_3_21)">
<path d="M110.787 96.3597L162.042 73.2472L166.029 68.3223L167.893 63.4751L169.104 58.8549L168.337 55.1793L166.909 51.8623L165.865 49.756L163.396 47.8989L112.173 70.4189L110.787 96.3597Z" fill="#BB86FC"/>
<path d="M110.787 96.3597L162.042 73.2472L166.029 68.3223L167.893 63.4751L169.104 58.8549L168.337 55.1793L166.909 51.8623L165.865 49.756L163.396 47.8989L112.173 70.4189L110.787 96.3597Z" fill="url(#paint3_linear_3_21)"/>
<path d="M110.787 96.3597L162.042 73.2472L166.029 68.3223L167.893 63.4751L169.104 58.8549L168.337 55.1793L166.909 51.8623L165.865 49.756L163.396 47.8989L112.173 70.4189L110.787 96.3597Z" stroke="#BB86FC"/>
</g>
<path d="M163.982 39.4667L115.378 11.6389L114.042 36.6343L162.616 65.0463C165.497 68.8514 163.492 71.2662 160.868 73.7384C187.132 58.7527 171.895 45.4289 163.982 39.4667Z" fill="#BB86FC" stroke="#BB86FC"/>
<defs>
<filter id="filter0_d_3_21" x="39.3213" y="62.3499" width="45.3526" height="95.7317" filterUnits="userSpaceOnUse" color-interpolation-filters="sRGB">
<feFlood flood-opacity="0" result="BackgroundImageFix"/>
<feColorMatrix in="SourceAlpha" type="matrix" values="0 0 0 0 0 0 0 0 0 0 0 0 0 0 0 0 0 0 127 0" result="hardAlpha"/>
<feOffset dy="4"/>
<feGaussianBlur stdDeviation="2"/>
<feComposite in2="hardAlpha" operator="out"/>
<feColorMatrix type="matrix" values="0 0 0 0 0 0 0 0 0 0 0 0 0 0 0 0 0 0 0.25 0"/>
<feBlend mode="normal" in2="BackgroundImageFix" result="effect1_dropShadow_3_21"/>
<feBlend mode="normal" in="SourceGraphic" in2="effect1_dropShadow_3_21" result="shape"/>
</filter>
<filter id="filter1_d_3_21" x="0.536697" y="0.491852" width="86.627" height="97.0122" filterUnits="userSpaceOnUse" color-interpolation-filters="sRGB">
<feFlood flood-opacity="0" result="BackgroundImageFix"/>
<feColorMatrix in="SourceAlpha" type="matrix" values="0 0 0 0 0 0 0 0 0 0 0 0 0 0 0 0 0 0 127 0" result="hardAlpha"/>
<feOffset dy="4"/>
<feGaussianBlur stdDeviation="5"/>
<feComposite in2="hardAlpha" operator="out"/>
<feColorMatrix type="matrix" values="0 0 0 0 0 0 0 0 0 0 0 0 0 0 0 0 0 0 0.25 0"/>
<feBlend mode="normal" in2="BackgroundImageFix" result="effect1_dropShadow_3_21"/>
<feBlend mode="normal" in="SourceGraphic" in2="effect1_dropShadow_3_21" result="shape"/>
</filter>
<filter id="filter2_d_3_21" x="101.659" y="96.6739" width="77.2435" height="71.6861" filterUnits="userSpaceOnUse" color-interpolation-filters="sRGB">
<feFlood flood-opacity="0" result="BackgroundImageFix"/>
<feColorMatrix in="SourceAlpha" type="matrix" values="0 0 0 0 0 0 0 0 0 0 0 0 0 0 0 0 0 0 127 0" result="hardAlpha"/>
<feOffset dy="4"/>
<feGaussianBlur stdDeviation="5"/>
<feComposite in2="hardAlpha" operator="out"/>
<feColorMatrix type="matrix" values="0 0 0 0 0 0 0 0 0 0 0 0 0 0 0 0 0 0 0.25 0"/>
<feBlend mode="normal" in2="BackgroundImageFix" result="effect1_dropShadow_3_21"/>
<feBlend mode="normal" in="SourceGraphic" in2="effect1_dropShadow_3_21" result="shape"/>
</filter>
<filter id="filter3_d_3_21" x="100.244" y="41.3233" width="79.3734" height="69.8306" filterUnits="userSpaceOnUse" color-interpolation-filters="sRGB">
<feFlood flood-opacity="0" result="BackgroundImageFix"/>
<feColorMatrix in="SourceAlpha" type="matrix" values="0 0 0 0 0 0 0 0 0 0 0 0 0 0 0 0 0 0 127 0" result="hardAlpha"/>
<feOffset dy="4"/>
<feGaussianBlur stdDeviation="5"/>
<feComposite in2="hardAlpha" operator="out"/>
<feColorMatrix type="matrix" values="0 0 0 0 0 0 0 0 0 0 0 0 0 0 0 0 0 0 0.25 0"/>
<feBlend mode="normal" in2="BackgroundImageFix" result="effect1_dropShadow_3_21"/>
<feBlend mode="normal" in="SourceGraphic" in2="effect1_dropShadow_3_21" result="shape"/>
</filter>
<linearGradient id="paint0_linear_3_21" x1="59.1277" y1="75.9911" x2="77.5635" y2="56.836" gradientUnits="userSpaceOnUse">
<stop stop-color="#BB86FC"/>
<stop offset="1" stop-color="#181424"/>
</linearGradient>
<linearGradient id="paint1_linear_3_21" x1="70.1107" y1="83.2004" x2="31.9691" y2="24.9605" gradientUnits="userSpaceOnUse">
<stop offset="0.27" stop-color="#8543D9" stop-opacity="0"/>
<stop offset="1" stop-color="#181424"/>
</linearGradient>
<linearGradient id="paint2_linear_3_21" x1="183.884" y1="109.163" x2="105.239" y2="146.866" gradientUnits="userSpaceOnUse">
<stop stop-color="#A943D9"/>
<stop offset="0.687568" stop-color="#191623"/>
</linearGradient>
<linearGradient id="paint3_linear_3_21" x1="184.801" y1="55.5597" x2="103.212" y2="86.801" gradientUnits="userSpaceOnUse">
<stop stop-color="#A943D9"/>
<stop offset="0.687568" stop-color="#191623"/>
</linearGradient>
</defs>
</svg>
